<svg xmlns="http://www.w3.org/2000/svg" viewBox="0 0 955.59 955.59"><defs><linearGradient id="ae6b6e1a2-69f4-448a-942e-a88171fdc7e5" x1="355.23" y1="330.23" x2="273.75" y2="896.92" gradientUnits="userSpaceOnUse"><stop offset="0" stop-color="#0dbad1"/><stop offset="1" stop-color="#009090"/></linearGradient><linearGradient id="b17f31cd1-aa23-4334-80b3-77421501e75a" x1="312.81" y1="-1502" x2="569.47" y2="1577.76" gradientUnits="userSpaceOnUse"><stop offset="0" stop-color="#0072b8"/><stop offset="1" stop-color="#004777"/></linearGradient></defs><g><g><path d="M20.32 615.79c59.22 196.58 241.59 339.8 457.47 339.8a480.72 480.72 0 0 0 82.13-7.17c55.99-308.49-281.59-517.54-539.6-332.63z" fill="url(#ae6b6e1a2-69f4-448a-942e-a88171fdc7e5)"/><path d="M955.59 477.8C955.59 213.92 741.67 0 477.79 0S0 213.92 0 477.8a477.51 477.51 0 0 0 20.32 138c258-184.91 595.58 24.14 539.59 332.63 224.73-38.97 395.68-234.78 395.68-470.63z" fill="url(#b17f31cd1-aa23-4334-80b3-77421501e75a)"/><path d="M157.09 364.35c-14 21.88-33.25 40.34-54.06 55.91-7.27 5.49-29.37 11.78-31.94 21.42-11.82 44.05 165.54-37.34 181.22-45.23zM616.17 213.9c116.44 16.12 74.53 39.68 45.7 58.72-15.78 10.35-23.92 26-12.52 55.31l-143-110.52c32.85-4.65 72.27-8.75 109.82-3.51zM720.78 685.33c-4.68-4.3-10.52-6.87-18.07-5.69-46.3 7.36-68.25 89.86-96 120l.91.16c40.21 6.84 68.38-16.21 94.89-36.23 24.71 22.52 48.82 49 93 44.58l.94-.14c-23.17-29.77-38.03-102.26-75.67-122.68z" fill="#fff"/><path d="M666 560.09a182.49 182.49 0 0 0-12-29C575.14 379.8 378.1 348.66 229.37 405.22c51.8 10.3 113.49 12.07 157.72 15.39a292 292 0 0 1-29.31-40.55c42.24 19.28 84.59 29.75 132.62 30.75a169.5 169.5 0 0 0 18 38.38c60.32 22.04 120.12 55.71 157.6 110.9z" fill="#fff"/><path d="M426.61 425.2c-.35-.11-.73-.12-1.05-.22.32.1.7.11 1.05.22zM417.11 423.6a3.46 3.46 0 0 0-.35-.06 3.46 3.46 0 0 1 .35.06zM450 431c-.61-.18-1.21-.31-1.8-.47.58.17 1.18.3 1.8.47zM422.27 424.39a5.16 5.16 0 0 1-1-.17 7.08 7.08 0 0 0 1 .17z" fill="#fff"/><path d="M617 273.35C562.6 215.4 489 177.6 398.57 175c-92.21-2.65-234.31 32.5-264.18 136.06C104.8 413.57 289 413.39 387.08 420.62a292 292 0 0 1-29.31-40.55c42.24 19.28 84.59 29.75 132.62 30.75a168.49 168.49 0 0 0 18 38.33c102.68 37.37 204.07 108.35 195.74 261.94C753 560.25 718.6 381.62 617 273.35zm-379 79.27a8.6 8.6 0 1 1 7.63-9.5 8.61 8.61 0 0 1-7.63 9.5z" fill="#fff"/><path d="M365.12 373c25.85 44.95 82.8 103.61 132.42 115.61 16.77 3.91 21.11-7.35 10.9-21.43-14-19.26-27.08-43.72-31.47-68.51-3-17-14.33-32.65-31.51-34.44l-44.34-4.57c-17.22-1.96-44.65-1.66-36 13.34zM20.32 615.79c2.45 8.16 5.21 16.19 8.07 24.15 37.88-22.3 92.06-47.78 169.6-60.25 151.76-22.58 313 94.87 344 227.72A371.34 371.34 0 0 1 553 949.48c2.31-.37 4.64-.66 6.95-1.06 55.96-308.49-281.62-517.54-539.63-332.63z" fill="#fff"/><path d="M559.92 948.42c2.41-.42 4.77-1 7.17-1.41 9.15-38.31 14.41-87.72 5.55-146.71-12.21-72-54.14-152.56-125.1-208.42C377.49 535.66 281 507 191.57 517c-79.46 10.2-138.28 40.9-178.2 72.82 2.1 8.73 4.38 17.4 7 26 257.96-184.94 595.54 24.11 539.55 332.6z" fill="#fff"/><path d="M488 781.68c-19.16-65.13-96.37-124.18-171.83-137.42-75.75-15.74-131.94 9.91-126.5 28 4.61 21.1 42.39 20.21 113.67 33.64 62 11.57 126.72 42.55 156.32 89.29 31.42 46.1 27.26 93.41 29 92.38-2.66.63 20.34-41.69-.66-105.89z" fill="#fff"/><path d="M412.23 816.31c-14.65-28.46-50.34-55-87.19-60.12-37.32-6-65 14.74-57.63 32.75 7.12 19.82 20.72 25.79 48.08 29.53 24.32 3.38 52.56 7.86 73.35 18.84 20.31 10.83 30.07 29.8 31.05 29.37-1.6.87 7.11-20.51-7.66-50.37z" fill="#fff"/></g></g></svg>